<?xml version="1.0" encoding="utf-8"?>
<!DOCTYPE svg>
<svg width="491" height="578" viewBox="0 0 491 578" fill="none" xmlns="http://www.w3.org/2000/svg">
<rect x="389.026" y="111.286" width="17.5781" height="544.768" transform="rotate(33.7376 389.026 111.286)" stroke="black" stroke-width="5"/>
<path fill-rule="evenodd" clip-rule="evenodd" d="M387.213 161.665C408.001 149.437 437.195 118.527 463.936 78.4869C474.087 63.2884 482.887 48.2675 490.081 34.1728L439.594 0.454041L387.213 161.665Z" fill="#E77500"/>
<path fill-rule="evenodd" clip-rule="evenodd" d="M439.165 0.86028L386.784 162.072C377.154 167.736 369.328 169.392 364.385 166.091C348.77 155.662 367.831 99.7135 406.959 41.1266C417.109 25.9281 427.613 12.0451 437.877 0L439.165 0.86028Z" fill="black"/>
<rect x="-0.6905" y="3.46745" width="17.5781" height="544.768" transform="matrix(-0.83159 0.55539 0.55539 0.83159 98.555 108.786)" stroke="black" stroke-width="5"/>
<path fill-rule="evenodd" clip-rule="evenodd" d="M102.868 161.665C82.0798 149.437 52.8864 118.527 26.1451 78.4869C15.9946 63.2884 7.19454 48.2675 7.62939e-06 34.1728L50.4874 0.454041L102.868 161.665Z" fill="#E77500"/>
<path fill-rule="evenodd" clip-rule="evenodd" d="M50.9166 0.86028L103.297 162.072C112.927 167.736 120.753 169.392 125.696 166.091C141.312 155.662 122.251 99.7135 83.1224 41.1266C72.9719 25.9281 62.4681 12.0451 52.2047 0L50.9166 0.86028Z" fill="black"/>
<g clip-path="url(#clip0_3_172)">
<path d="M243.661 147.099C245.603 149.824 247.272 152.753 249.304 155.428C260.89 171.548 276.26 184.896 293.751 194.262C308.756 202.318 325.314 207.452 342.238 209.341C360.623 211.43 379.413 209.707 397.135 204.403C398.071 215.439 398.491 226.513 398.499 237.587V237.806C398.299 262.964 395.62 288.1 390.421 312.714C297.787 312.71 205.153 312.714 112.519 312.714C107.397 312.626 102.255 312.888 97.1441 312.579C97.1094 312.753 97.04 313.107 97.0092 313.285C96.9321 313.238 96.7818 313.146 96.7086 313.1C96.9784 312.429 96.697 311.747 96.5891 311.08C91.8406 288.246 89.3623 264.953 89 241.638V231.038C89.212 222.157 89.6321 213.28 90.4068 204.426C93.1434 205.147 95.8568 205.961 98.6164 206.585C124.163 212.609 151.463 211.106 176.138 202.129C203.981 192.104 228.371 172.484 243.661 147.099ZM217.903 217.697C212.911 218.761 207.831 219.551 202.713 219.478C197.29 219.413 191.748 218.939 186.671 216.892C186.668 238.789 186.668 260.686 186.671 282.584C189.581 283.983 192.8 284.58 195.983 284.977C201.676 285.575 207.465 285.498 213.108 284.453C219.383 283.432 225.561 281.481 231.979 281.616C235.798 281.647 239.757 282.626 242.732 285.128C242.717 263.496 242.728 241.865 242.724 220.234C240.682 217.458 237.217 216.167 233.886 215.847C228.49 215.354 223.156 216.618 217.903 217.697ZM244.802 220.245C244.802 241.826 244.798 263.404 244.806 284.985C246.987 283.532 249.377 282.314 252.005 281.94C259.502 280.718 266.864 283.189 274.183 284.407C279.895 285.486 285.761 285.586 291.535 284.981C294.734 284.58 297.979 283.995 300.901 282.572C300.87 260.667 300.951 238.762 300.862 216.861C294.561 219.393 287.6 219.629 280.897 219.351C272.445 218.981 264.382 215.762 255.902 215.712C251.844 215.685 247.326 216.815 244.802 220.245ZM180.697 225.433C180.724 247.277 180.628 269.124 180.744 290.967C190.449 292.224 200.246 293.118 210.04 292.644C218.766 292.197 227.431 291.029 236.153 290.543C236.114 291.919 236.176 293.295 236.103 294.668C240.905 296.741 246.521 296.56 251.362 294.698C251.327 293.303 251.373 291.904 251.285 290.512C255.521 290.848 259.756 291.179 263.992 291.53C267.835 291.935 271.678 292.347 275.54 292.536C285.966 293.222 296.418 292.32 306.752 290.956C306.81 269.124 306.744 247.292 306.786 225.46C305.53 225.067 304.254 224.763 302.986 224.416C302.986 244.182 302.998 263.947 302.982 283.713C300.392 285.313 297.382 286.022 294.426 286.589C288.07 287.618 281.541 287.625 275.185 286.612C268.509 285.598 261.953 283.436 255.135 283.621C251.319 283.713 247.215 284.95 244.817 288.107C244.112 288.1 243.41 288.096 242.709 288.096C240.327 284.908 236.184 283.713 232.368 283.621C225.303 283.451 218.527 285.76 211.593 286.735C205.511 287.614 199.283 287.579 193.216 286.6C190.241 286.03 187.203 285.332 184.602 283.717C184.586 263.94 184.606 244.166 184.598 224.393C183.295 224.736 181.996 225.086 180.697 225.433ZM308.852 235.717C308.868 239.313 308.81 242.91 308.883 246.506C310.768 246.479 312.653 246.502 314.537 246.49C314.553 242.913 314.51 239.336 314.56 235.763C312.66 235.652 310.752 235.74 308.852 235.717ZM172.939 235.717C172.935 239.309 172.935 242.898 172.939 246.49C174.831 246.494 176.724 246.494 178.616 246.49C178.624 242.898 178.62 239.309 178.62 235.717C176.724 235.713 174.831 235.713 172.939 235.717ZM172.939 267.601C172.935 271.19 172.935 274.782 172.939 278.375C174.812 278.39 176.685 278.348 178.562 278.402C178.716 274.817 178.55 271.225 178.643 267.636C176.743 267.555 174.839 267.617 172.939 267.601ZM308.841 267.617C308.856 271.19 308.864 274.767 308.837 278.34C310.737 278.417 312.637 278.359 314.537 278.375C314.541 274.782 314.541 271.19 314.537 267.601C312.637 267.605 310.737 267.578 308.841 267.617Z" fill="black"/>
<path d="M273.84 228.49C276.63 227.846 279.741 229.65 280.492 232.429C281.329 235.158 279.783 238.346 277.108 239.352C274.576 240.466 271.285 239.348 269.993 236.893C269.165 235.224 269.149 233.181 269.924 231.489C270.668 229.951 272.198 228.872 273.84 228.49ZM274.152 229.195C272.021 230.082 271.689 232.799 271.828 234.827C271.897 236.596 272.753 238.916 274.8 239.074C276.507 239.263 277.729 237.671 277.976 236.137C278.288 234.229 278.346 232.063 277.255 230.379C276.63 229.338 275.308 228.848 274.152 229.195Z" fill="black"/>
<path d="M193.871 228.764C195.941 228.663 198.018 228.737 200.092 228.702C200.092 229.835 198.015 228.829 198.304 230.178C199.113 232.352 200.107 234.457 201.025 236.584C201.106 236.623 201.264 236.7 201.345 236.739C202.085 234.646 203.337 232.734 203.835 230.568C204.104 229.577 202.987 229.377 202.308 229.199C201.934 229.08 202.262 228.475 202.628 228.69C204.066 228.737 205.507 228.702 206.945 228.714C207.446 228.841 206.941 229.396 206.633 229.307C205.92 229.461 205.245 229.874 204.968 230.575C203.511 233.628 202.146 236.727 200.682 239.776C200.543 239.76 200.265 239.726 200.127 239.71C198.878 236.758 197.587 233.821 196.203 230.93C195.902 230.379 195.609 229.689 194.954 229.488C194.569 229.272 193.864 229.365 193.871 228.764Z" fill="black"/>
<path d="M208.232 228.617C211.636 228.636 215.043 228.64 218.45 228.729C218.516 229.642 218.573 230.56 218.612 231.477C217.837 231.739 217.691 230.722 217.217 230.352C216.095 228.845 214.052 229.384 212.453 229.334C212.372 230.675 212.36 232.021 212.376 233.362C213.748 233.532 215.301 233.004 215.559 231.489C215.683 231.473 215.933 231.446 216.06 231.431C215.979 233.015 216.006 234.595 216.01 236.18C215.209 236.284 215.363 235.285 215.062 234.811C214.48 233.925 213.278 233.994 212.349 234.017C212.534 235.509 211.909 237.27 212.796 238.581C213.833 239.032 215.062 238.785 216.176 238.816C217.617 238.828 218.25 237.305 218.936 236.284C219.082 236.322 219.375 236.395 219.522 236.434C219.548 237.417 219.495 238.4 219.545 239.383C218.843 239.61 218.103 239.521 217.382 239.525C214.264 239.464 211.146 239.421 208.028 239.468C208.036 238.307 209.716 239.221 209.986 238.288C210.433 235.617 210.183 232.88 210.156 230.182C210.24 228.848 208.121 229.785 208.232 228.617Z" fill="black"/>
<path d="M221.337 228.733C225.137 228.729 228.938 228.725 232.738 228.687C232.803 229.831 232.8 230.98 232.738 232.129C231.882 232.183 231.898 231.177 231.478 230.675C230.818 229.504 229.362 229.315 228.151 229.369C228.151 232.21 228.059 235.05 228.19 237.887C228.236 239.144 230.082 238.354 230.298 239.456C228.136 239.483 225.97 239.414 223.807 239.502C223.611 238.612 224.652 238.978 225.118 238.735C225.773 238.704 226.024 238.076 225.958 237.502C225.985 234.788 226.055 232.075 225.92 229.365C224.736 229.288 223.414 229.477 222.724 230.564C222.258 230.976 222.131 232.021 221.387 231.928C221.225 230.868 221.333 229.797 221.337 228.733Z" fill="black"/>
<path d="M253.408 228.621C254.584 228.652 255.763 228.602 256.931 228.756C259.433 231.327 261.976 233.882 264.301 236.623C264.312 234.457 264.551 232.233 264.1 230.101C263.892 228.941 261.996 229.847 261.988 228.609C263.811 228.767 265.65 228.567 267.465 228.771C266.991 229.596 265.43 229.307 265.299 230.556C264.979 233.555 265.141 236.611 265.222 239.633C264.563 240.096 264.185 239.175 263.746 238.862C261.344 236.357 258.955 233.836 256.523 231.358C256.773 233.578 256.345 235.883 256.927 238.049C257.243 239.017 258.854 238.462 258.897 239.471C257.155 239.444 255.416 239.475 253.678 239.456C253.863 238.681 254.827 238.901 255.336 238.477C255.933 238.099 255.74 237.294 255.813 236.704C255.794 234.9 255.871 233.092 255.74 231.292C255.709 230.174 254.653 229.484 253.697 229.168C253.624 229.03 253.482 228.756 253.408 228.621Z" fill="black"/>
<path d="M281.88 229.134C281.922 229.022 282.003 228.791 282.046 228.675C284 228.794 285.958 228.656 287.912 228.714C287.954 228.825 288.043 229.045 288.085 229.157C287.438 229.342 286.189 229.138 286.266 230.144C287.176 232.437 288.116 234.746 289.238 236.947C289.986 234.649 291.558 232.583 291.82 230.163C291.812 229.076 290.066 229.758 290.12 228.694C291.801 228.737 293.481 228.683 295.166 228.74C295.185 229.357 294.491 229.276 294.106 229.477C293.57 229.631 293.177 230.086 292.95 230.575C291.485 233.636 290.128 236.75 288.64 239.803C288.502 239.76 288.216 239.676 288.078 239.633C286.717 236.511 285.418 233.35 283.85 230.325C283.495 229.535 282.616 229.365 281.88 229.134Z" fill="black"/>
<path d="M195.452 245.731C199.236 245.843 203.021 245.719 206.806 245.743C206.81 246.822 206.856 247.905 206.81 248.984C206.166 249.589 205.978 248.379 205.688 248.013C205.106 246.652 203.53 246.348 202.208 246.398C202.231 249.339 202.031 252.299 202.308 255.225C202.605 256.204 204.37 255.394 204.27 256.531C202.154 256.497 200.038 256.481 197.918 256.543L197.907 256.011C198.608 255.834 200.007 255.957 199.984 254.893C200.054 252.064 200.1 249.227 199.961 246.402C198.94 246.421 197.772 246.406 197.063 247.277C196.434 247.782 196.311 248.822 195.482 249.065C195.274 247.967 195.313 246.833 195.452 245.731Z" fill="black"/>
<path d="M208.853 246.186C208.533 246.086 208.795 245.438 209.165 245.681C212.372 245.681 215.586 245.689 218.793 245.777C219.24 246.583 218.963 247.689 219.067 248.607C218.273 248.626 218.115 247.689 217.598 247.273C216.434 245.924 214.461 246.394 212.904 246.46C212.896 247.782 212.846 249.1 212.873 250.422C213.802 250.387 214.893 250.41 215.567 249.643C215.821 249.289 215.895 248.036 216.561 248.637C216.434 250.179 216.55 251.729 216.461 253.27C215.606 253.317 215.918 252.21 215.478 251.752C214.85 250.973 213.74 251.043 212.838 251.07C213.066 252.588 212.283 254.539 213.447 255.757C215.097 255.849 217.371 256.481 218.462 254.824C219.013 254.338 219.074 253.216 219.98 253.294C219.938 254.361 220.219 255.548 219.861 256.543C216.095 256.624 212.326 256.423 208.556 256.52C208.386 255.325 210.317 256.331 210.495 255.282C210.915 252.592 210.687 249.836 210.637 247.126C210.51 246.267 209.462 246.417 208.853 246.186Z" fill="black"/>
<path d="M224.351 246.036C225.796 245.118 227.762 245.249 229.196 246.128C229.4 245.754 230.487 245.145 230.371 246.012C230.252 247.018 230.29 248.036 230.421 249.042C229.52 249.289 229.516 248.186 229.138 247.662C228.463 245.974 225.719 245.646 224.736 247.18C224.147 248.248 225.203 249.262 226.182 249.505C227.616 250.102 229.281 250.299 230.468 251.37C231.844 252.681 231.478 255.202 229.839 256.13C228.167 257.271 226.058 256.801 224.324 256.08C223.873 256.381 223.391 256.497 222.879 256.423C223.052 255.221 222.933 254.007 223.044 252.804C223.942 252.804 223.962 253.833 224.359 254.407C225.13 256.103 227.766 256.739 229.138 255.437C229.963 254.693 229.662 253.243 228.691 252.773C227.226 251.995 225.434 251.906 224.124 250.819C222.605 249.678 222.732 247.03 224.351 246.036Z" fill="black"/>
<path d="M252.476 245.735C256.264 245.839 260.057 245.716 263.846 245.746C263.854 246.837 263.892 247.928 263.85 249.019C263.711 249.042 263.437 249.096 263.302 249.123C262.875 248.375 262.589 247.485 261.861 246.968C261.109 246.406 260.123 246.463 259.236 246.398C259.267 249.335 259.074 252.288 259.332 255.209C259.625 256.2 261.36 255.398 261.321 256.527C259.198 256.504 257.078 256.477 254.958 256.547L254.927 256.011C255.632 255.83 257.035 255.965 257.02 254.893C257.089 252.064 257.128 249.231 256.997 246.406C255.979 246.425 254.811 246.402 254.102 247.273C253.47 247.782 253.351 248.807 252.53 249.069C252.295 247.974 252.368 246.841 252.476 245.735Z" fill="black"/>
<path d="M269.978 246.217C270.14 245.716 270.71 245.114 271.2 245.689C272.726 248.834 273.79 252.199 275.459 255.275C275.729 256.134 277.297 255.618 277.17 256.593C275.201 256.527 273.231 256.527 271.261 256.566C271.142 255.61 272.495 256.258 272.857 255.61C272.915 254.542 272.283 253.598 271.971 252.607C270.637 252.476 269.292 252.515 267.958 252.588C267.619 253.536 267.149 254.477 267.176 255.51C267.631 256.115 268.964 255.595 268.864 256.562C267.253 256.516 265.642 256.527 264.035 256.551C263.996 255.637 265.318 256.03 265.665 255.34C267.438 252.469 268.336 249.162 269.978 246.217ZM268.298 251.821C269.396 251.813 270.494 251.81 271.597 251.813C271.073 250.549 270.529 249.296 270.028 248.024C269.288 249.204 268.775 250.518 268.298 251.821Z" fill="black"/>
<path d="M278.114 245.777C279.752 245.696 281.398 245.77 283.044 245.762C284.231 248.267 285.36 250.8 286.509 253.324C287.661 250.804 288.771 248.256 290.124 245.831C291.612 245.75 293.127 245.631 294.611 245.824C294.58 245.924 294.518 246.117 294.491 246.217C293.728 246.348 292.637 246.544 292.63 247.539C292.576 249.963 292.475 252.407 292.703 254.824C292.761 255.795 293.728 256.076 294.553 256.061L294.538 256.57C292.572 256.547 290.61 256.543 288.648 256.535L288.621 256.023C289.288 255.938 290.317 255.996 290.417 255.09C290.548 252.303 290.437 249.505 290.475 246.714C288.872 249.898 287.511 253.24 285.888 256.389C284.054 253.301 282.882 249.828 281.086 246.718C281.09 249.239 281.059 251.767 281.19 254.284C281.263 255.387 282.308 256.057 283.337 256.076L283.318 256.554C281.591 256.554 279.86 256.477 278.134 256.543C278.08 255.448 280.095 256.088 280.134 254.866C280.388 252.422 280.28 249.94 280.207 247.489C280.184 246.425 278.955 246.406 278.191 246.286C278.172 246.159 278.134 245.905 278.114 245.777Z" fill="black"/>
<path d="M200.377 262.745C203.754 262.733 207.134 262.787 210.51 262.822C210.661 263.743 210.664 264.676 210.711 265.609C209.932 265.794 209.762 264.853 209.296 264.441C208.144 263.007 206.097 263.396 204.501 263.558C204.513 264.865 204.455 266.171 204.467 267.478C205.715 267.567 207.404 267.274 207.542 265.744C207.697 265.686 208.009 265.574 208.167 265.516C208.09 267.108 208.086 268.704 208.14 270.3C207.188 270.438 207.515 269.355 207.122 268.858C206.506 268.052 205.361 268.091 204.451 268.141C204.683 269.664 203.869 271.687 205.114 272.851C206.768 272.886 209.022 273.545 210.098 271.861C210.645 271.433 210.726 269.999 211.651 270.519C211.593 271.556 211.701 272.608 211.535 273.641C207.747 273.657 203.962 273.51 200.177 273.584C200 272.423 202.127 273.395 202.146 272.188C202.478 269.637 202.293 267.046 202.274 264.479C202.362 263.4 201.098 263.388 200.358 263.269L200.377 262.745Z" fill="black"/>
<path d="M213.624 262.745C214.815 262.872 216.153 262.544 217.255 263.026C219.718 265.539 222.108 268.126 224.528 270.681C224.374 268.492 224.802 266.221 224.208 264.09C223.935 263.099 222.038 263.909 222.196 262.725C223.946 262.826 225.7 262.818 227.454 262.783L227.504 263.242C226.417 263.308 225.349 264.094 225.349 265.258C225.272 268.002 225.245 270.751 225.372 273.495C225.365 273.9 224.929 274.035 224.679 273.742C221.965 271.047 219.414 268.195 216.685 265.52C216.881 267.598 216.635 269.706 216.955 271.776C217.12 272.809 218.323 272.936 219.136 273.187C219.074 273.287 218.955 273.487 218.893 273.587C217.236 273.595 215.575 273.568 213.917 273.607C213.89 272.597 215.582 273.148 215.837 272.192C216.118 270.034 215.949 267.829 215.925 265.655C216.01 264.348 214.796 263.585 213.721 263.227L213.624 262.745Z" fill="black"/>
<path d="M252.148 266.021C252.214 264.946 251.986 263.836 252.291 262.791C256.06 262.964 259.833 262.756 263.603 262.841C263.588 263.92 263.645 265.003 263.572 266.083L263.137 266.322C262.686 265.566 262.385 264.676 261.691 264.102C260.924 263.493 259.895 263.516 258.974 263.493C258.978 266.275 258.912 269.062 258.997 271.845C258.955 272.905 260.196 272.94 260.944 273.044C260.978 273.171 261.048 273.422 261.086 273.549C258.982 273.638 256.873 273.522 254.773 273.626C254.391 272.643 256.079 273.067 256.631 272.632C256.985 269.61 256.789 266.541 256.758 263.504C255.625 263.439 254.353 263.558 253.644 264.568C253.104 265.023 253.015 266.156 252.148 266.021Z" fill="black"/>
<path d="M264.258 262.814C266.243 262.88 268.228 262.818 270.209 262.81C270.275 262.907 270.402 263.096 270.467 263.192C269.843 263.319 269.234 263.489 268.629 263.689C268.641 263.901 268.664 264.325 268.675 264.537C269.554 266.734 270.568 268.877 271.47 271.067C272.171 269.806 272.657 268.442 273.27 267.135C273.678 266.168 274.268 265.192 274.133 264.102C273.902 263.196 272.344 263.847 272.449 262.806C274.04 262.83 275.636 262.872 277.228 262.803C277.29 262.926 277.409 263.176 277.471 263.3C276.623 263.454 275.686 263.758 275.32 264.622C273.844 267.675 272.495 270.793 271.003 273.842C270.676 274.069 270.452 273.988 270.336 273.599C269.145 270.797 267.912 268.018 266.613 265.266C266.316 264.703 266.066 264.059 265.507 263.708C265.098 263.354 264.035 263.651 264.258 262.814Z" fill="black"/>
<path d="M278.357 262.799C280.003 262.837 281.653 262.837 283.298 262.849C284.262 264.93 285.214 267.019 286.158 269.116C286.378 269.502 286.44 270.064 286.894 270.269C287.897 267.702 289.045 265.177 290.479 262.826C291.924 262.864 293.37 262.772 294.819 262.814C294.811 263.774 293.235 263.2 292.988 264.144C292.645 265.755 292.896 267.436 292.818 269.074C292.88 270.246 292.645 271.545 293.227 272.62C293.543 273.341 294.942 272.651 294.83 273.626C292.857 273.58 290.849 273.707 288.902 273.518C288.868 273.426 288.798 273.241 288.764 273.148C289.527 273.04 290.702 273.025 290.683 271.965C290.76 269.228 290.675 266.487 290.729 263.751C289.242 266.958 287.619 270.107 286.332 273.402C286.212 273.337 285.966 273.21 285.842 273.144C284.32 270.03 282.967 266.819 281.34 263.766C281.306 266.333 281.294 268.912 281.452 271.475C281.56 272.531 282.574 273.063 283.533 273.163C283.553 273.279 283.595 273.51 283.618 273.626C281.853 273.618 280.095 273.564 278.334 273.587C278.338 272.508 280.265 273.171 280.354 271.999C280.604 269.436 280.585 266.807 280.377 264.244C280.207 263.061 278.211 263.997 278.357 262.799Z" fill="black"/>
<path d="M180.138 378.757C201.295 358.54 222.462 338.339 243.592 318.095C278.7 351.602 313.716 385.206 348.817 418.716C349.241 419.156 349.65 419.618 350.062 420.077C340.095 437.553 328.864 454.313 316.295 470.023C316.141 469.904 315.825 469.665 315.667 469.545C291.635 446.341 267.642 423.091 243.607 399.891C224.178 418.728 204.717 437.538 185.261 456.352C180.566 460.834 176.007 465.467 171.22 469.854C168.113 466.111 165.23 462.191 162.316 458.302C153.259 445.937 144.86 433.082 137.379 419.703C151.559 405.981 165.901 392.421 180.138 378.757Z" fill="black"/>
<path d="M217.903 217.697C223.156 216.618 228.49 215.354 233.886 215.847C237.217 216.167 240.682 217.458 242.724 220.234C242.728 241.865 242.717 263.496 242.732 285.128C239.757 282.626 235.798 281.647 231.979 281.616C225.561 281.481 219.383 283.432 213.108 284.453C207.465 285.498 201.676 285.575 195.983 284.977C192.8 284.58 189.581 283.983 186.671 282.584C186.668 260.686 186.668 238.789 186.671 216.892C191.748 218.939 197.29 219.413 202.713 219.478C207.831 219.551 212.911 218.761 217.903 217.697ZM193.871 228.764C193.864 229.365 194.569 229.272 194.954 229.488C195.61 229.689 195.902 230.379 196.203 230.93C197.587 233.821 198.878 236.758 200.127 239.71C200.266 239.726 200.543 239.76 200.682 239.776C202.146 236.727 203.511 233.628 204.968 230.575C205.245 229.874 205.92 229.461 206.633 229.307C206.941 229.396 207.446 228.841 206.945 228.714C205.507 228.702 204.066 228.737 202.628 228.69C202.262 228.475 201.934 229.08 202.308 229.199C202.987 229.376 204.104 229.577 203.835 230.568C203.337 232.734 202.085 234.646 201.345 236.739C201.264 236.7 201.106 236.623 201.025 236.584C200.107 234.457 199.113 232.352 198.304 230.178C198.015 228.829 200.092 229.835 200.092 228.702C198.018 228.737 195.941 228.663 193.871 228.764ZM208.232 228.617C208.121 229.785 210.24 228.848 210.156 230.182C210.183 232.88 210.433 235.617 209.986 238.288C209.716 239.221 208.036 238.307 208.028 239.468C211.146 239.421 214.264 239.464 217.382 239.525C218.103 239.521 218.843 239.61 219.545 239.383C219.495 238.4 219.549 237.417 219.522 236.434C219.375 236.395 219.082 236.322 218.936 236.284C218.25 237.305 217.617 238.828 216.176 238.816C215.062 238.785 213.833 239.032 212.796 238.581C211.909 237.27 212.534 235.509 212.349 234.017C213.278 233.994 214.48 233.925 215.062 234.811C215.363 235.285 215.209 236.284 216.01 236.18C216.006 234.595 215.979 233.015 216.06 231.431C215.933 231.446 215.683 231.473 215.559 231.489C215.301 233.004 213.748 233.532 212.376 233.362C212.36 232.021 212.372 230.675 212.453 229.334C214.052 229.384 216.095 228.845 217.217 230.352C217.691 230.722 217.837 231.739 218.612 231.477C218.573 230.56 218.516 229.642 218.45 228.729C215.043 228.64 211.636 228.636 208.232 228.617ZM221.337 228.733C221.333 229.797 221.225 230.868 221.387 231.928C222.131 232.021 222.258 230.976 222.724 230.564C223.414 229.477 224.736 229.288 225.92 229.365C226.055 232.075 225.985 234.788 225.958 237.502C226.024 238.076 225.773 238.704 225.118 238.735C224.652 238.978 223.611 238.612 223.807 239.502C225.97 239.414 228.136 239.483 230.298 239.456C230.082 238.354 228.236 239.144 228.19 237.887C228.059 235.05 228.151 232.21 228.151 229.369C229.362 229.315 230.818 229.504 231.478 230.675C231.898 231.177 231.882 232.183 232.738 232.129C232.8 230.98 232.803 229.831 232.738 228.687C228.938 228.725 225.137 228.729 221.337 228.733ZM195.452 245.731C195.313 246.833 195.274 247.967 195.482 249.065C196.311 248.822 196.434 247.782 197.063 247.277C197.772 246.406 198.94 246.421 199.961 246.402C200.1 249.227 200.054 252.064 199.984 254.893C200.007 255.957 198.608 255.834 197.907 256.011L197.918 256.543C200.038 256.481 202.154 256.497 204.27 256.531C204.37 255.394 202.605 256.204 202.308 255.225C202.031 252.299 202.231 249.339 202.208 246.398C203.53 246.348 205.106 246.652 205.688 248.013C205.978 248.379 206.166 249.589 206.81 248.984C206.856 247.905 206.81 246.822 206.806 245.743C203.021 245.719 199.236 245.843 195.452 245.731ZM208.853 246.186C209.462 246.417 210.51 246.267 210.637 247.126C210.687 249.836 210.915 252.592 210.495 255.282C210.317 256.331 208.386 255.325 208.556 256.52C212.326 256.423 216.095 256.624 219.861 256.543C220.219 255.548 219.938 254.361 219.98 253.294C219.074 253.216 219.013 254.338 218.462 254.824C217.371 256.481 215.097 255.849 213.447 255.757C212.283 254.539 213.066 252.588 212.838 251.07C213.74 251.043 214.85 250.973 215.478 251.752C215.918 252.21 215.606 253.317 216.461 253.27C216.55 251.729 216.434 250.179 216.561 248.637C215.895 248.036 215.821 249.289 215.567 249.643C214.893 250.41 213.802 250.387 212.873 250.422C212.846 249.1 212.896 247.782 212.904 246.46C214.461 246.394 216.434 245.924 217.598 247.273C218.115 247.689 218.273 248.626 219.067 248.606C218.963 247.689 219.24 246.583 218.793 245.777C215.586 245.689 212.372 245.681 209.165 245.681C208.795 245.438 208.533 246.086 208.853 246.186ZM224.351 246.036C222.732 247.03 222.605 249.678 224.124 250.819C225.434 251.906 227.226 251.995 228.691 252.773C229.662 253.243 229.963 254.693 229.138 255.437C227.766 256.739 225.129 256.103 224.359 254.407C223.962 253.833 223.942 252.804 223.044 252.804C222.933 254.007 223.052 255.221 222.879 256.423C223.391 256.497 223.873 256.381 224.324 256.08C226.058 256.801 228.167 257.271 229.839 256.13C231.478 255.202 231.844 252.681 230.468 251.37C229.281 250.299 227.616 250.102 226.182 249.505C225.203 249.262 224.147 248.248 224.736 247.18C225.719 245.646 228.463 245.974 229.138 247.662C229.516 248.186 229.52 249.289 230.421 249.042C230.29 248.036 230.252 247.018 230.371 246.012C230.487 245.145 229.4 245.754 229.196 246.128C227.762 245.249 225.796 245.118 224.351 246.036ZM200.377 262.745L200.358 263.269C201.098 263.388 202.362 263.4 202.274 264.479C202.293 267.046 202.478 269.637 202.146 272.188C202.127 273.395 200 272.423 200.177 273.584C203.962 273.51 207.747 273.657 211.535 273.641C211.701 272.608 211.593 271.556 211.651 270.519C210.726 269.999 210.645 271.433 210.098 271.861C209.022 273.545 206.768 272.886 205.114 272.851C203.869 271.687 204.683 269.664 204.451 268.141C205.361 268.091 206.506 268.052 207.122 268.858C207.515 269.355 207.188 270.438 208.14 270.3C208.086 268.704 208.09 267.108 208.167 265.516C208.009 265.574 207.697 265.686 207.542 265.744C207.404 267.274 205.715 267.567 204.467 267.478C204.455 266.171 204.513 264.865 204.501 263.558C206.097 263.396 208.144 263.007 209.296 264.441C209.762 264.853 209.932 265.794 210.711 265.609C210.664 264.676 210.661 263.743 210.51 262.822C207.134 262.787 203.754 262.733 200.377 262.745ZM213.624 262.745L213.721 263.227C214.796 263.585 216.01 264.348 215.925 265.655C215.949 267.829 216.118 270.034 215.837 272.192C215.582 273.148 213.89 272.597 213.917 273.607C215.575 273.568 217.236 273.595 218.893 273.587C218.955 273.487 219.074 273.287 219.136 273.187C218.323 272.936 217.12 272.809 216.955 271.776C216.635 269.706 216.881 267.598 216.685 265.52C219.414 268.195 221.965 271.047 224.679 273.742C224.929 274.035 225.365 273.9 225.372 273.495C225.245 270.75 225.272 268.002 225.349 265.258C225.349 264.094 226.417 263.307 227.504 263.242L227.454 262.783C225.7 262.818 223.946 262.826 222.196 262.725C222.038 263.909 223.935 263.099 224.208 264.09C224.802 266.221 224.374 268.492 224.528 270.681C222.108 268.126 219.718 265.539 217.255 263.026C216.153 262.544 214.815 262.872 213.624 262.745Z" fill="white"/>
<path d="M244.802 220.245C247.326 216.815 251.844 215.685 255.902 215.712C264.382 215.762 272.445 218.981 280.897 219.351C287.6 219.629 294.561 219.393 300.862 216.861C300.951 238.762 300.87 260.667 300.901 282.572C297.979 283.994 294.734 284.58 291.535 284.981C285.761 285.586 279.895 285.486 274.183 284.407C266.864 283.189 259.502 280.718 252.005 281.94C249.377 282.314 246.987 283.532 244.806 284.985C244.798 263.404 244.802 241.826 244.802 220.245ZM273.84 228.49C272.198 228.872 270.668 229.951 269.924 231.489C269.149 233.181 269.165 235.224 269.993 236.893C271.285 239.348 274.576 240.466 277.108 239.352C279.783 238.346 281.329 235.158 280.492 232.429C279.741 229.65 276.63 227.846 273.84 228.49ZM253.408 228.621C253.482 228.756 253.624 229.03 253.697 229.168C254.653 229.484 255.709 230.174 255.74 231.292C255.871 233.092 255.794 234.9 255.813 236.704C255.74 237.294 255.933 238.099 255.336 238.477C254.827 238.901 253.863 238.681 253.678 239.456C255.416 239.475 257.155 239.444 258.897 239.471C258.854 238.462 257.243 239.017 256.927 238.049C256.345 235.883 256.773 233.578 256.523 231.358C258.955 233.836 261.344 236.357 263.746 238.862C264.185 239.175 264.563 240.096 265.222 239.633C265.141 236.611 264.979 233.555 265.299 230.556C265.43 229.307 266.991 229.596 267.465 228.771C265.65 228.567 263.811 228.767 261.988 228.609C261.996 229.847 263.892 228.941 264.1 230.101C264.551 232.233 264.312 234.457 264.301 236.623C261.976 233.882 259.433 231.327 256.931 228.756C255.763 228.602 254.584 228.652 253.408 228.621ZM281.88 229.134C282.616 229.365 283.495 229.535 283.85 230.325C285.418 233.35 286.717 236.511 288.078 239.633C288.216 239.676 288.502 239.76 288.64 239.803C290.128 236.75 291.485 233.636 292.95 230.575C293.177 230.086 293.57 229.631 294.106 229.477C294.491 229.276 295.185 229.357 295.166 228.741C293.481 228.683 291.801 228.737 290.12 228.694C290.067 229.758 291.812 229.076 291.82 230.163C291.558 232.583 289.986 234.649 289.238 236.947C288.116 234.746 287.176 232.437 286.266 230.144C286.189 229.138 287.438 229.342 288.085 229.157C288.043 229.045 287.954 228.825 287.912 228.714C285.958 228.656 284 228.794 282.046 228.675C282.003 228.791 281.922 229.022 281.88 229.134ZM252.476 245.735C252.368 246.841 252.295 247.974 252.53 249.069C253.351 248.807 253.47 247.782 254.102 247.273C254.811 246.402 255.979 246.425 256.997 246.406C257.128 249.231 257.089 252.064 257.02 254.893C257.035 255.965 255.632 255.83 254.927 256.011L254.958 256.547C257.078 256.477 259.198 256.504 261.321 256.527C261.36 255.398 259.625 256.2 259.332 255.209C259.074 252.288 259.267 249.335 259.236 246.398C260.123 246.463 261.109 246.406 261.861 246.968C262.589 247.485 262.875 248.375 263.302 249.123C263.437 249.096 263.711 249.042 263.85 249.019C263.892 247.928 263.854 246.837 263.846 245.746C260.057 245.716 256.264 245.839 252.476 245.735ZM269.978 246.217C268.336 249.162 267.438 252.469 265.665 255.34C265.318 256.03 263.996 255.637 264.035 256.551C265.642 256.527 267.253 256.516 268.864 256.562C268.964 255.595 267.631 256.115 267.176 255.51C267.149 254.477 267.619 253.536 267.958 252.588C269.292 252.515 270.637 252.476 271.971 252.607C272.283 253.598 272.915 254.542 272.857 255.61C272.495 256.258 271.142 255.61 271.261 256.566C273.231 256.527 275.201 256.527 277.17 256.593C277.297 255.618 275.729 256.134 275.459 255.275C273.79 252.199 272.726 248.834 271.2 245.689C270.71 245.114 270.14 245.716 269.978 246.217ZM278.114 245.777C278.134 245.905 278.172 246.159 278.191 246.286C278.955 246.406 280.184 246.425 280.207 247.489C280.28 249.94 280.388 252.422 280.134 254.866C280.095 256.088 278.08 255.448 278.134 256.543C279.86 256.477 281.591 256.554 283.318 256.554L283.337 256.076C282.308 256.057 281.263 255.387 281.19 254.284C281.059 251.767 281.09 249.239 281.086 246.718C282.882 249.828 284.054 253.301 285.888 256.389C287.511 253.24 288.872 249.898 290.475 246.714C290.437 249.505 290.548 252.303 290.417 255.09C290.317 255.996 289.288 255.938 288.621 256.023L288.648 256.535C290.61 256.543 292.572 256.547 294.537 256.57L294.553 256.061C293.728 256.076 292.761 255.795 292.703 254.824C292.475 252.407 292.576 249.963 292.63 247.539C292.637 246.544 293.728 246.348 294.491 246.217C294.518 246.117 294.58 245.924 294.611 245.824C293.127 245.631 291.612 245.75 290.124 245.831C288.771 248.256 287.661 250.804 286.509 253.324C285.36 250.8 284.231 248.267 283.044 245.762C281.398 245.77 279.752 245.696 278.114 245.777ZM252.148 266.021C253.015 266.156 253.104 265.023 253.644 264.568C254.353 263.558 255.625 263.439 256.758 263.504C256.789 266.541 256.985 269.61 256.631 272.631C256.079 273.067 254.391 272.643 254.773 273.626C256.873 273.522 258.982 273.638 261.086 273.549C261.048 273.422 260.978 273.171 260.944 273.044C260.196 272.94 258.955 272.905 258.997 271.845C258.912 269.062 258.978 266.275 258.974 263.493C259.895 263.516 260.924 263.493 261.691 264.102C262.385 264.676 262.686 265.566 263.137 266.322L263.572 266.083C263.645 265.003 263.588 263.92 263.603 262.841C259.833 262.756 256.06 262.964 252.291 262.791C251.986 263.836 252.214 264.946 252.148 266.021ZM264.258 262.814C264.035 263.651 265.098 263.354 265.507 263.708C266.066 264.059 266.316 264.703 266.613 265.266C267.912 268.018 269.145 270.797 270.336 273.599C270.452 273.988 270.676 274.069 271.003 273.842C272.495 270.793 273.844 267.675 275.32 264.622C275.686 263.758 276.623 263.454 277.471 263.3C277.409 263.176 277.29 262.926 277.228 262.803C275.636 262.872 274.04 262.83 272.449 262.806C272.344 263.847 273.902 263.196 274.133 264.102C274.268 265.192 273.678 266.168 273.27 267.135C272.657 268.442 272.171 269.806 271.47 271.067C270.568 268.877 269.554 266.734 268.675 264.537C268.664 264.325 268.641 263.901 268.629 263.689C269.234 263.489 269.843 263.319 270.467 263.192C270.402 263.095 270.275 262.907 270.209 262.81C268.228 262.818 266.243 262.88 264.258 262.814ZM278.357 262.799C278.211 263.997 280.207 263.061 280.377 264.244C280.585 266.807 280.604 269.436 280.354 271.999C280.265 273.171 278.338 272.508 278.334 273.587C280.095 273.564 281.853 273.618 283.618 273.626C283.595 273.51 283.553 273.279 283.533 273.163C282.574 273.063 281.56 272.531 281.452 271.475C281.294 268.912 281.306 266.333 281.34 263.766C282.967 266.819 284.32 270.03 285.842 273.144C285.966 273.21 286.212 273.337 286.332 273.402C287.619 270.107 289.242 266.958 290.729 263.751C290.675 266.487 290.76 269.228 290.683 271.965C290.702 273.025 289.527 273.04 288.764 273.148C288.798 273.241 288.868 273.426 288.903 273.518C290.849 273.707 292.857 273.58 294.83 273.626C294.942 272.651 293.543 273.341 293.227 272.62C292.645 271.545 292.88 270.246 292.818 269.074C292.896 267.436 292.645 265.755 292.988 264.144C293.235 263.2 294.811 263.774 294.819 262.814C293.37 262.772 291.924 262.864 290.479 262.826C289.045 265.177 287.897 267.702 286.894 270.269C286.44 270.064 286.378 269.502 286.158 269.116C285.214 267.019 284.262 264.93 283.298 262.849C281.653 262.837 280.003 262.837 278.357 262.799Z" fill="white"/>
<path d="M180.697 225.433C181.996 225.086 183.295 224.736 184.598 224.393C184.606 244.166 184.586 263.94 184.602 283.717C187.203 285.332 190.241 286.03 193.216 286.6C199.283 287.579 205.511 287.614 211.593 286.735C218.527 285.76 225.303 283.451 232.368 283.621C236.184 283.713 240.327 284.908 242.709 288.096C243.41 288.096 244.112 288.1 244.817 288.107C247.215 284.95 251.319 283.713 255.135 283.621C261.953 283.436 268.509 285.598 275.185 286.612C281.541 287.625 288.07 287.618 294.426 286.589C297.382 286.022 300.392 285.313 302.982 283.713C302.998 263.947 302.986 244.182 302.986 224.416C304.254 224.763 305.53 225.067 306.786 225.46C306.744 247.292 306.81 269.124 306.752 290.956C296.418 292.32 285.966 293.222 275.54 292.536C271.678 292.347 267.835 291.935 263.992 291.53C259.756 291.179 255.521 290.848 251.285 290.512C251.373 291.904 251.327 293.303 251.362 294.698C246.521 296.56 240.905 296.741 236.103 294.668C236.176 293.295 236.114 291.919 236.153 290.543C227.431 291.029 218.766 292.197 210.04 292.644C200.246 293.118 190.449 292.224 180.744 290.967C180.628 269.124 180.724 247.277 180.697 225.433Z" fill="white"/>
<path d="M274.152 229.195C275.308 228.848 276.63 229.338 277.255 230.379C278.346 232.063 278.288 234.229 277.976 236.137C277.729 237.671 276.507 239.263 274.8 239.074C272.753 238.916 271.897 236.596 271.828 234.827C271.689 232.799 272.021 230.082 274.152 229.195Z" fill="white"/>
<path d="M308.852 235.717C310.752 235.74 312.66 235.652 314.56 235.763C314.51 239.336 314.553 242.913 314.537 246.49C312.653 246.502 310.768 246.479 308.883 246.506C308.81 242.91 308.868 239.313 308.852 235.717Z" fill="white"/>
<path d="M172.939 235.717C174.831 235.713 176.724 235.713 178.62 235.717C178.62 239.309 178.624 242.898 178.616 246.49C176.724 246.494 174.831 246.494 172.939 246.49C172.935 242.898 172.935 239.309 172.939 235.717Z" fill="white"/>
<path d="M268.297 251.821C268.775 250.518 269.288 249.204 270.028 248.024C270.529 249.296 271.073 250.549 271.597 251.813C270.494 251.81 269.396 251.813 268.297 251.821Z" fill="white"/>
<path d="M172.939 267.601C174.839 267.617 176.743 267.555 178.643 267.636C178.55 271.225 178.716 274.817 178.562 278.402C176.685 278.348 174.812 278.39 172.939 278.375C172.935 274.782 172.935 271.19 172.939 267.601Z" fill="white"/>
<path d="M308.841 267.617C310.737 267.578 312.637 267.605 314.537 267.601C314.541 271.19 314.541 274.782 314.537 278.375C312.637 278.359 310.737 278.417 308.837 278.34C308.864 274.767 308.856 271.19 308.841 267.617Z" fill="white"/>
<path d="M97.0092 313.285C97.04 313.107 97.1094 312.753 97.1441 312.579C102.255 312.888 107.396 312.626 112.519 312.714C205.153 312.714 297.787 312.71 390.421 312.714C382.658 350.268 368.844 386.524 350.051 419.934C349.627 419.514 349.237 419.121 348.817 418.716C313.716 385.206 278.7 351.602 243.592 318.095C222.462 338.339 201.295 358.54 180.138 378.757C165.901 392.421 151.559 405.981 137.379 419.703C135.641 416.419 133.771 413.208 132.079 409.901C116.022 379.512 104.209 346.892 97.0092 313.285Z" fill="#E87722"/>
<path d="M185.261 456.352C204.717 437.538 224.177 418.728 243.607 399.891C267.642 423.091 291.635 446.341 315.667 469.545C315.805 469.673 316.079 469.923 316.218 470.047C295.173 496.342 270.722 519.9 243.649 539.932C236.353 534.44 229.188 528.766 222.266 522.807C203.619 506.822 186.567 489.014 171.22 469.854C176.007 465.467 180.566 460.834 185.261 456.352Z" fill="#E87722"/>
</g>
<defs>
<clipPath id="clip0_3_172">
<rect width="309.499" height="395" fill="white" transform="translate(89 146)"/>
</clipPath>
</defs>
</svg>
